<svg xmlns="http://www.w3.org/2000/svg" viewBox="0 0 1600 720" role="img" aria-labelledby="title desc">
  <title id="title">ManhwaShorts Studio</title>
  <desc id="desc">A vertical motion-comic production pipeline: panels, camera motion, narration, subtitles, and a rendered short.</desc>
  <defs>
    <linearGradient id="bg" x1="0" y1="0" x2="1" y2="1">
      <stop offset="0" stop-color="#171717"/>
      <stop offset="1" stop-color="#343434"/>
    </linearGradient>
    <linearGradient id="pink" x1="0" y1="0" x2="1" y2="1">
      <stop offset="0" stop-color="#ff8fb3"/>
      <stop offset="1" stop-color="#ffcc8a"/>
    </linearGradient>
    <filter id="shadow" x="-20%" y="-20%" width="150%" height="150%">
      <feDropShadow dx="14" dy="14" stdDeviation="0" flood-color="#000"/>
    </filter>
  </defs>
  <rect width="1600" height="720" fill="url(#bg)"/>
  <path d="M0 590L420 210l260 180L1010 0h590v720H0z" fill="#232323"/>
  <g filter="url(#shadow)" stroke="#111" stroke-width="12">
    <rect x="970" y="70" width="270" height="520" rx="10" fill="#f7f1e8"/>
    <rect x="1000" y="100" width="210" height="200" fill="url(#pink)"/>
    <path d="M1010 278l78-88 42 44 52-70 28 114z" fill="#252525"/>
    <circle cx="1085" cy="164" r="28" fill="#ffe3c2"/>
    <rect x="1000" y="330" width="210" height="18" fill="#171717"/>
    <rect x="1000" y="370" width="168" height="14" fill="#777"/>
    <rect x="1000" y="405" width="195" height="14" fill="#777"/>
    <rect x="1000" y="458" width="190" height="72" rx="8" fill="#171717"/>
    <path d="M1030 495h130" stroke="#ff9fbd" stroke-width="10"/>
    <path d="M1110 458v72" stroke="#ff9fbd" stroke-width="10"/>
  </g>
  <g transform="translate(175 105)" filter="url(#shadow)" stroke="#111" stroke-width="12">
    <rect x="0" y="0" width="560" height="420" rx="12" fill="#f7f1e8"/>
    <path d="M30 355L180 115l116 145 112-180 122 275z" fill="#ffb37e"/>
    <circle cx="300" cy="145" r="68" fill="#ffe3c2"/>
    <path d="M230 140q68-92 140 0" fill="none" stroke="#171717" stroke-width="30"/>
    <path d="M255 235q45 35 90 0" fill="none" stroke="#171717" stroke-width="10"/>
    <path d="M45 45h190M45 78h110" stroke="#171717" stroke-width="14"/>
  </g>
  <g fill="#f7f1e8" font-family="Arial, Helvetica, sans-serif">
    <text x="80" y="635" font-size="62" font-weight="800" letter-spacing="3">MANHWASHORTS</text>
    <text x="84" y="682" font-size="24" letter-spacing="5" fill="#ff9fbd">STUDIO / MOTION-COMIC RENDER PIPELINE</text>
  </g>
  <g stroke="#ff9fbd" stroke-width="8" fill="none" stroke-linecap="round">
    <path d="M770 290h130"/><path d="M850 255l50 35-50 35"/>
    <path d="M770 400h130"/><path d="M850 365l50 35-50 35"/>
  </g>
</svg>
